<svg width="1132px" height="1242px" viewBox="0 0 1132 1242" version="1.1" xmlns="http://www.w3.org/2000/svg" xmlns:xlink="http://www.w3.org/1999/xlink">
    <!-- Generator: Sketch 60 (88103) - https://sketch.com -->
    <title>编组 24</title>
    <desc>Created with Sketch.</desc>
    <g id="页面-1" stroke="none" stroke-width="1" fill="none" fill-rule="evenodd">
        <g id="编组-24" transform="translate(0.462258, 0.979366)">
            <path d="M2.27373675e-13,53.1678835 C174.923178,17.7226278 350.612094,-1.13686838e-13 527.066746,-1.13686838e-13 C703.521399,-1.13686838e-13 879.49915,17.7226278 1055,53.1678835 L1109.73247,828.277276 C950.630092,809.067044 791.119339,799.461929 631.20021,799.461929 C471.281081,799.461929 317.714337,809.067044 170.499978,828.277276 L2.27373675e-13,53.1678835 Z" id="G_2" fill="#D8D8D8"></path>
            <path d="M527.066746,0 C703.521399,0 879.49915,17.7226278 1055,53.1678835 L1109.73247,828.277276 C950.630092,809.067044 791.119339,799.461929 631.20021,799.461929 C471.281081,799.461929 317.714337,809.067044 170.499978,828.277276 L-2.27373675e-13,53.1678835 C174.923178,17.7226278 350.612094,0 527.066746,0 Z M527.066746,1 C352.442862,1 178.569117,18.3633704 5.44456626,53.0903181 L1.19474178,53.9476344 L171.278742,827.168634 L174.790232,826.712087 C319.227657,808.068787 469.765371,798.653125 626.403267,798.464811 L631.20021,798.461929 C789.510361,798.461929 947.420457,807.872383 1104.93029,826.69327 L1108.64974,827.140634 L1054.05574,53.9986344 L1049.53881,53.0904423 C877.602289,18.7141806 705.209067,1.35254743 532.358241,1 L527.066746,1 Z" id="G_2_border" fill="#979797" fill-rule="nonzero"></path>
            <path d="M187.84074,909.680772 C347.598064,886.777824 505.392855,875.32635 661.225113,875.32635 C817.057371,875.32635 966.559823,886.777824 1109.73247,909.680772 L1130.47731,1222.69694 C996.27538,1208.87575 849.214849,1201.96515 689.29572,1201.96515 C529.376591,1201.96515 380.817134,1214.69905 243.617349,1240.16683 L187.84074,909.680772 Z" id="G_1" fill="#D8D8D8"></path>
            <path d="M661.225113,874.82635 C506.927463,874.82635 350.706581,886.051625 192.562615,908.50208 L187.262413,909.25857 L243.208901,1240.75119 L243.708603,1240.65844 C380.877195,1215.19644 529.40623,1202.46515 689.29572,1202.46515 C847.599374,1202.46515 993.299798,1209.23745 1126.39671,1222.7818 L1131.01539,1223.255 L1110.20502,909.250008 L1109.81145,909.187049 C966.612194,886.279845 817.083361,874.82635 661.225113,874.82635 Z M665.897402,875.82635 C818.463472,876.054194 964.950023,887.274656 1105.35721,909.490969 L1109.25874,910.111634 L1129.93874,1222.13963 L1130.52854,1222.19957 C996.308805,1208.37655 849.231298,1201.46515 689.29572,1201.46515 L684.500665,1201.46898 C527.973506,1201.71861 382.355425,1214.20039 247.646432,1238.91485 L244.025742,1239.58363 L188.418742,910.103634 L187.911695,910.175712 C347.64572,887.276104 505.416809,875.82635 661.225113,875.82635 L665.897402,875.82635 Z" id="G_1_border" fill="#979797" fill-rule="nonzero"></path>
        </g>
    </g>
</svg>