   <svg width="32px" height="32px" viewBox="0 0 32 32" version="1.1" xmlns="http://www.w3.org/2000/svg" xmlns:xlink="http://www.w3.org/1999/xlink">
            <g stroke="none" stroke-width="1" fill="none" fill-rule="evenodd">
                <path d="M11,1.5 C6.85786438,1.5 3.5,4.85786438 3.5,9 L3.5,28 C3.5,29.9329966 5.06700338,31.5 7,31.5 L25,31.5 C26.9329966,31.5 28.5,29.9329966 28.5,28 L28.5,9 C28.5,4.85786438 25.1421356,1.5 21,1.5 L11,1.5 Z" stroke="rgba(0,0,0,0.45)" fill="#7571EF"></path>
                <path d="M31.5,15 C31.5,13.3431458 30.1568542,12 28.5,12 C26.8431458,12 25.5,13.3431458 25.5,15 L25.5,23 C25.5,24.3807119 24.3807119,25.5 23,25.5 L9,25.5 C7.61928813,25.5 6.5,24.3807119 6.5,23 L6.5,15 C6.5,13.3431458 5.15685425,12 3.5,12 C1.84314575,12 0.5,13.3431458 0.5,15 L0.5,26 C0.5,29.0375661 2.96243388,31.5 6,31.5 L26,31.5 C29.0375661,31.5 31.5,29.0375661 31.5,26 L31.5,15 Z" stroke="rgba(0,0,0,0.45)" fill="#7571EF"></path>
            </g>
        </svg>