<svg width="32px" height="32px" viewBox="0 0 32 32" version="1.1" xmlns="http://www.w3.org/2000/svg" xmlns:xlink="http://www.w3.org/1999/xlink">
    <g stroke="none" stroke-width="1" fill="none" fill-rule="evenodd">
        <path
            d="M11,1.5 C6.85786438,1.5 3.5,4.85786438 3.5,9 L3.5,28 C3.5,29.9329966 5.06700338,31.5 7,31.5 L25,31.5 C26.9329966,31.5 28.5,29.9329966 28.5,28 L28.5,9 C28.5,4.85786438 25.1421356,1.5 21,1.5 L11,1.5 Z"
            id="Rectangle-Copy-2"
            stroke="rgba(0,0,0,0.45)"
            fill="#7571EF"></path>
        <path
            d="M31.5,15 C31.5,13.3431458 30.1568542,12 28.5,12 C26.8431458,12 25.5,13.3431458 25.5,15 L25.5,23 C25.5,24.3807119 24.3807119,25.5 23,25.5 L9,25.5 C7.61928813,25.5 6.5,24.3807119 6.5,23 L6.5,15 C6.5,13.3431458 5.15685425,12 3.5,12 C1.84314575,12 0.5,13.3431458 0.5,15 L0.5,26 C0.5,29.0375661 2.96243388,31.5 6,31.5 L26,31.5 C29.0375661,31.5 31.5,29.0375661 31.5,26 L31.5,15 Z"
            stroke="rrgba(0,0,0,0.45)"
            fill="#7571EF"></path>
        <path
            d="M28.9292012,12.0304066 L28.5,11.9690142 L28.5,9 C28.5,4.85786438 25.1421356,1.5 21,1.5 L11,1.5 C6.85786438,1.5 3.5,4.85786438 3.5,9 L3.5,11.9690142 L3.07079879,12.0304066 C1.60371045,12.2402571 0.5,13.5028128 0.5,15 L0.5,26 C0.5,29.0375661 2.96243388,31.5 6,31.5 L26,31.5 C29.0375661,31.5 31.5,29.0375661 31.5,26 L31.5,15 C31.5,13.5028128 30.3962896,12.2402571 28.9292012,12.0304066 Z"
            stroke="#000000"
            fill="#000000"
            opacity="0.6"></path>
        <path
            style="transform: rotate(180deg);transform-origin: 50% 50%;"
            d="M22.5688538,12.889892 L14.4449928,20.8889925 C14.2487772,21.0795102 13.9322232,21.0795102 13.7386256,20.8889925 L12.6716388,19.8387476 L9.14732667,16.3660028 C8.95089111,16.1752211 8.95089111,15.863551 9.14732667,15.6694254 L10.2114974,14.6214905 C10.408219,14.4283989 10.7216711,14.4283989 10.9181066,14.6214905 L14.0905552,17.7451876 L20.7952578,11.1430697 C20.9917154,10.9523101 21.3082474,10.9523101 21.504705,11.1430697 L22.5688758,12.1930727 C22.7627594,12.3838543 22.7627594,12.6955244 22.5688538,12.889892 Z"
            fill="#FFFFFF"></path>
    </g>
</svg>