<svg width="32px" height="32px" viewBox="0 0 32 32" version="1.1" xmlns="http://www.w3.org/2000/svg" xmlns:xlink="http://www.w3.org/1999/xlink">
    <g stroke="none" stroke-width="1" fill="none" fill-rule="evenodd">
        <path
            d="M11.5,2.5 C7.63400675,2.5 4.5,5.63400675 4.5,9.5 L4.5,27.25 C4.5,29.0449254 5.95507456,30.5 7.75,30.5 L24.25,30.5 C26.0449254,30.5 27.5,29.0449254 27.5,27.25 L27.5,9.5 C27.5,5.63400675 24.3659932,2.5 20.5,2.5 L11.5,2.5 Z"
            stroke="#D3D3D3"
            fill="#DDE0E5"></path>
        <path
            d="M30.5,15.2439024 C30.5,13.7297763 29.2560651,12.5 27.71875,12.5 C26.1814349,12.5 24.9375,13.7297763 24.9375,15.2439024 L24.9375,22.6371951 C24.9375,23.9488714 23.8741763,25.0121951 22.5625,25.0121951 L9.4375,25.0121951 C8.12582372,25.0121951 7.0625,23.9488714 7.0625,22.6371951 L7.0625,15.2439024 C7.0625,13.7297763 5.81856508,12.5 4.28125,12.5 C2.74393492,12.5 1.5,13.7297763 1.5,15.2439024 L1.5,25.375 C1.5,28.2054593 3.79454066,30.5 6.625,30.5 L25.375,30.5 C28.2054593,30.5 30.5,28.2054593 30.5,25.375 L30.5,15.2439024 Z"
            stroke="#D3D3D3"
            fill="#DDE0E5"></path>
    </g>
</svg>